<?xml version="1.0" encoding="UTF-8"?>
<svg xmlns="http://www.w3.org/2000/svg" version="1.1" xmlns:xlink="http://www.w3.org/1999/xlink" viewBox="0 0 800 800">
  <!-- Generator: Adobe Illustrator 29.6.1, SVG Export Plug-In . SVG Version: 2.1.1 Build 9)  -->
  <defs>
    <style>
      .st0 {
        fill: url(#linear-gradient2);
      }

      .st1 {
        fill: #b8b8b8;
      }

      .st2 {
        fill: #fff;
      }

      .st3 {
        fill: url(#linear-gradient1);
      }

      .st4 {
        fill: none;
      }

      .st5 {
        isolation: isolate;
      }

      .st6 {
        fill: url(#radial-gradient);
        mix-blend-mode: soft-light;
      }

      .st7 {
        display: none;
      }

      .st8 {
        fill: #aaa;
      }

      .st9 {
        fill: url(#linear-gradient);
      }
    </style>
    <linearGradient id="linear-gradient" x1="150.18" y1="522.97" x2="867.93" y2="169.66" gradientUnits="userSpaceOnUse">
      <stop offset="0" stop-color="#c9d6d5"/>
      <stop offset="1" stop-color="#e3e3e3"/>
    </linearGradient>
    <radialGradient id="radial-gradient" cx="400" cy="400" fx="400" fy="400" r="574.46" gradientUnits="userSpaceOnUse">
      <stop offset="0" stop-color="#fff"/>
      <stop offset="1" stop-color="#201600"/>
    </radialGradient>
    <linearGradient id="linear-gradient1" x1="149.56" y1="596.48" x2="600.19" y2="146.91" gradientUnits="userSpaceOnUse">
      <stop offset="0" stop-color="#e9f0ed"/>
      <stop offset="1" stop-color="#f6faf6"/>
    </linearGradient>
    <linearGradient id="linear-gradient2" x1="221.91" y1="668.99" x2="672.53" y2="219.42" xlink:href="#linear-gradient1"/>
  </defs>
  <g class="st5">
    <g id="background" class="st7">
      <g>
        <rect class="st9" width="800" height="800"/>
        <rect class="st6" width="800" height="800"/>
      </g>
    </g>
    <g id="objects">
      <line class="st4" x1="651.78" y1="521.72" x2="647.72" y2="520.93"/>
      <g>
        <path class="st2" d="M406.01,151.55c-334.62,0-353.95,157.96-347.48,223.78,1.55,15.81,17.87,25.99,33.51,23.2l84.46-15.05s7.22-1.29,16.12-2.87c8.9-1.58,18.26-9.6,21.61-17.63,2.03-4.86,4.24-9.63,6.62-14.29,13.47-26.44,32.45-49.63,55.42-68.04,35.57-28.53,80.68-45.63,129.75-45.63,84.63,0,157.6,50.88,189.92,123.65,6.45,14.52,12.13,27.82,25.68,30l15.88,2.99,82.71,15.6c15.62,2.94,31.78-7.14,33.35-22.95,6.7-67.56-11.31-232.76-347.54-232.76Z"/>
        <path class="st2" d="M643.77,424.21l-23.87-4.71-39.58-8.39c-13.42-74.46-72.23-131.95-147.19-143.52l-.49-.07c-8.72-1.33-17.68-2-26.63-2-85.4,0-158.12,60.34-174.04,143.89l-63.61,13.2-.22,3.27c-.38,5.74-.58,11.39-.58,16.8,0,64.36,24.62,124.43,69.32,169.13,44.7,44.7,104.76,69.32,169.12,69.32s124.42-24.62,169.12-69.32c44.71-44.7,69.32-104.77,69.32-169.13,0-5.13-.16-10.23-.46-15.15l-.21-3.32ZM406.01,303.47c28.11,0,55.21,8.38,78.38,24.22,38.1,26.04,60.85,69.02,60.85,114.98,0,2.61-.07,5.24-.2,7.67-.29,3.26-.6,6.01-.92,8.26-6.67,36.92-33.76,56.6-50.75,56.6-2.61,0-6.21-.49-8.53-2.86-1.66-1.69-2.47-4.17-2.4-7.47v-118.92h-40.46v11.11c-4.81-2.55-10.18-4.75-16.07-6.56-8.2-2.22-16.17-3.32-24.11-3.37-.39-.03-.78-.03-1.17-.03-12.35,0-23.85,2.31-34.05,6.83-10.49,4.3-19.79,10.47-27.64,18.32-7.88,7.88-13.95,16.79-18.64,27.39-2.47,6.2-4.33,12.72-5.56,19.55-.62,4.41-.94,8.98-.94,13.58,0,11.52,2.09,22.65,6.24,33.19,4.27,10.04,10.43,19.12,18.31,27,7.98,7.99,17.18,14.15,27.37,18.34,10.89,4.38,22.31,6.51,34.91,6.51h.92c11.32-.1,21.17-1.84,29.98-5.27,7.34-2.59,14.24-6.18,20.94-10.92,5.44,9.58,19.83,16.22,36.82,16.22,36.06,0,79.05-28.46,93.04-107.88l23.75,5.93c-6.81,107.02-92.21,187.29-200.06,187.29s-194.2-81-200.15-188.97l21.83-5.56,39.08-8.34.13-3.35c3.03-74.85,64.13-133.48,139.11-133.48ZM442.09,493.91c-1.59,6.96-8.53,12.17-15.84,16.81-6.56,4.29-14.89,6.52-25.03,6.64-.2.01-.39,0-.6,0-7.38,0-13.84-1.18-19.22-3.5-5.65-2.43-10.56-5.69-14.55-9.67-4.31-4.33-7.37-8.95-9.37-14.17-2.37-5.94-3.52-11.58-3.52-17.26,0-4.28.61-8.15,1.82-11.52l.21-.85c.24-1.7.72-3.38,1.45-5.1,2.27-5.3,5.39-9.95,9.6-14.46,4.47-4.19,9.37-7.39,14.98-9.78,5.84-2.53,12.03-3.75,18.74-3.79.17,0,.37,0,.67.01,4.3.08,8.64.82,12.57,2.13l.32.09c3.9.97,7.86,2.69,11.57,4.97,3.83,2.65,7.05,5.41,9.57,8.2l.61.67c2.73,2.97,5.32,5.78,6.04,8.66,2.39,9.5,2.38,31.43-.02,41.9Z"/>
      </g>
      <g>
        <path class="st1" d="M405.75,157c-334.62,0-353.94,157.96-347.48,223.77,1.55,15.81,17.87,25.99,33.51,23.21l84.46-15.05s7.21-1.29,16.12-2.87c8.9-1.59,18.26-9.6,21.61-17.63,2.03-4.86,4.24-9.63,6.62-14.29,13.47-26.44,32.45-49.63,55.42-68.04,35.57-28.53,80.68-45.63,129.74-45.63,84.64,0,157.6,50.88,189.92,123.65,6.45,14.52,12.13,27.82,25.69,30.01l15.88,2.99,82.72,15.6c15.61,2.94,31.78-7.14,33.34-22.95,6.7-67.56-11.31-232.76-347.54-232.76Z"/>
        <path class="st1" d="M643.52,429.66l-23.87-4.72-39.58-8.39c-13.43-74.45-72.23-131.95-147.2-143.52l-.49-.07c-8.72-1.33-17.68-2-26.63-2-85.39,0-158.12,60.34-174.04,143.89l-63.6,13.2-.22,3.27c-.38,5.74-.58,11.39-.58,16.8,0,64.36,24.62,124.42,69.32,169.13,44.7,44.7,104.76,69.31,169.12,69.31s124.42-24.61,169.12-69.31c44.71-44.7,69.32-104.77,69.32-169.13,0-5.13-.16-10.23-.47-15.16l-.21-3.32ZM405.75,308.92c28.11,0,55.22,8.38,78.38,24.23,38.1,26.04,60.85,69.02,60.85,114.99,0,2.61-.07,5.24-.2,7.66-.29,3.27-.6,6.02-.92,8.26-6.67,36.93-33.75,56.6-50.74,56.6-2.61,0-6.21-.49-8.53-2.87-1.66-1.69-2.46-4.17-2.4-7.47v-118.92h-40.47v11.11c-4.81-2.55-10.18-4.75-16.07-6.56-8.19-2.22-16.17-3.32-24.11-3.37-.39-.03-.78-.03-1.17-.03-12.36,0-23.85,2.32-34.05,6.83-10.49,4.3-19.79,10.46-27.64,18.31-7.88,7.88-13.96,16.79-18.64,27.39-2.46,6.2-4.33,12.72-5.56,19.55-.62,4.41-.94,8.98-.94,13.58,0,11.52,2.09,22.65,6.24,33.19,4.27,10.04,10.43,19.12,18.31,27,7.98,7.99,17.18,14.15,27.37,18.34,10.89,4.38,22.31,6.51,34.91,6.51h.92c11.32-.1,21.17-1.84,29.98-5.27,7.35-2.59,14.24-6.18,20.94-10.92,5.44,9.58,19.83,16.22,36.81,16.22,36.06,0,79.05-28.46,93.04-107.89l23.75,5.93c-6.81,107.02-92.21,187.29-200.06,187.29s-194.2-80.99-200.15-188.97l21.83-5.56,39.08-8.34.13-3.35c3.03-74.85,64.14-133.48,139.1-133.48ZM441.84,499.36c-1.6,6.96-8.53,12.18-15.84,16.81-6.56,4.29-14.89,6.52-25.02,6.63-.2.01-.39,0-.6,0-7.38,0-13.85-1.17-19.22-3.49-5.65-2.43-10.55-5.69-14.55-9.67-4.31-4.33-7.37-8.95-9.37-14.17-2.37-5.94-3.52-11.58-3.52-17.26,0-4.27.61-8.15,1.82-11.52l.21-.85c.24-1.7.72-3.38,1.45-5.1,2.27-5.3,5.39-9.96,9.6-14.46,4.47-4.19,9.36-7.39,14.98-9.78,5.84-2.53,12.03-3.75,18.74-3.79.18,0,.37,0,.67.02,4.3.08,8.64.81,12.56,2.13l.32.09c3.9.97,7.86,2.69,11.57,4.97,3.83,2.65,7.05,5.4,9.57,8.2l.61.67c2.73,2.97,5.32,5.78,6.04,8.67,2.38,9.49,2.37,31.43-.02,41.9Z"/>
      </g>
      <g>
        <path class="st3" d="M406.01,153.84c-334.62,0-353.95,157.96-347.48,223.78,1.55,15.81,17.87,25.99,33.51,23.2l84.46-15.05s7.22-1.29,16.12-2.87c8.9-1.58,18.26-9.6,21.61-17.63,2.03-4.86,4.24-9.63,6.62-14.29,13.47-26.44,32.45-49.63,55.42-68.04,35.57-28.53,80.68-45.63,129.75-45.63,84.63,0,157.6,50.88,189.92,123.65,6.45,14.52,12.13,27.82,25.68,30.01l15.88,2.99,82.71,15.6c15.62,2.94,31.78-7.14,33.35-22.95,6.7-67.56-11.31-232.76-347.54-232.76Z"/>
        <path class="st0" d="M643.77,426.5l-23.87-4.72-39.58-8.39c-13.42-74.46-72.23-131.95-147.19-143.52l-.49-.07c-8.72-1.33-17.68-2-26.63-2-85.4,0-158.12,60.34-174.04,143.89l-63.61,13.2-.22,3.27c-.38,5.74-.58,11.39-.58,16.8,0,64.36,24.62,124.43,69.32,169.13,44.7,44.7,104.76,69.31,169.12,69.31s124.42-24.62,169.12-69.31c44.71-44.7,69.32-104.77,69.32-169.13,0-5.13-.16-10.23-.46-15.16l-.21-3.31ZM406.01,305.76c28.11,0,55.21,8.38,78.38,24.22,38.1,26.04,60.85,69.02,60.85,114.99,0,2.61-.07,5.24-.2,7.67-.29,3.26-.6,6.01-.92,8.26-6.67,36.93-33.76,56.6-50.75,56.6-2.61,0-6.21-.5-8.53-2.86-1.66-1.69-2.47-4.17-2.4-7.46v-118.92h-40.46v11.11c-4.81-2.55-10.18-4.75-16.07-6.56-8.2-2.22-16.17-3.32-24.11-3.37-.39-.03-.78-.03-1.17-.03-12.35,0-23.85,2.31-34.05,6.83-10.49,4.3-19.79,10.46-27.64,18.31-7.88,7.88-13.95,16.79-18.64,27.39-2.47,6.2-4.33,12.72-5.56,19.55-.62,4.4-.94,8.97-.94,13.58,0,11.51,2.09,22.64,6.24,33.19,4.27,10.04,10.43,19.12,18.31,27,7.98,7.99,17.18,14.15,27.37,18.34,10.89,4.38,22.31,6.51,34.91,6.51h.92c11.32-.1,21.17-1.84,29.98-5.27,7.34-2.59,14.24-6.18,20.94-10.92,5.44,9.58,19.83,16.22,36.82,16.22,36.06,0,79.05-28.47,93.04-107.89l23.75,5.93c-6.81,107.02-92.21,187.29-200.06,187.29s-194.2-80.99-200.15-188.97l21.83-5.56,39.08-8.34.13-3.35c3.03-74.85,64.13-133.48,139.11-133.48ZM442.09,496.2c-1.59,6.96-8.53,12.18-15.84,16.81-6.56,4.29-14.89,6.52-25.03,6.64-.2.01-.39,0-.6.01-7.38,0-13.84-1.18-19.22-3.5-5.65-2.43-10.56-5.69-14.55-9.67-4.31-4.33-7.37-8.95-9.37-14.17-2.37-5.94-3.52-11.58-3.52-17.26,0-4.28.61-8.16,1.82-11.52l.21-.85c.24-1.7.72-3.37,1.45-5.1,2.27-5.3,5.39-9.96,9.6-14.46,4.47-4.19,9.37-7.39,14.98-9.78,5.84-2.53,12.03-3.75,18.74-3.79.17,0,.37,0,.67.02,4.3.08,8.64.82,12.57,2.13l.32.09c3.9.97,7.86,2.69,11.57,4.97,3.83,2.65,7.05,5.4,9.57,8.2l.61.67c2.73,2.97,5.32,5.78,6.04,8.67,2.39,9.5,2.38,31.43-.02,41.9Z"/>
      </g>
      <polygon class="st2" points="592.68 353.84 754.2 379.34 754.55 376.36 590.93 350.33 592.68 353.84"/>
      <polygon class="st8" points="592.07 352.81 754.19 378.32 754.55 375.34 590.31 349.31 592.07 352.81"/>
      <polygon class="st2" points="223.6 345 58.27 370.5 57.91 367.52 225.39 341.49 223.6 345"/>
      <polygon class="st8" points="224.22 343.97 58.27 369.48 57.91 366.5 226.02 340.47 224.22 343.97"/>
    </g>
  </g>
</svg>